<svg xmlns="http://www.w3.org/2000/svg" width="1309" height="991" viewBox="0 0 1309 991">
  <g transform="translate(8 182)">
    <circle cx="222" cy="493" r="2"/>
    <ellipse cx="534.5" cy="54.5" rx="1.5" ry="3.5"/>
    <circle cx="698" cy="119" r="1"/>
    <ellipse cx="780" cy="315.5" rx="3" ry="1.5"/>
    <ellipse cx="760.5" cy="321" rx="2.5" ry="2"/>
    <ellipse cx="850.5" cy="290.5" rx="3.5" ry="2.5"/>
    <ellipse cx="674" cy="157" rx="2" ry="1"/>
    <ellipse cx="756" cy="124.5" rx="2" ry="2.5"/>
    <ellipse cx="513" cy="243" rx="2" ry="3"/>
    <ellipse cx="520" cy="253.5" rx="2" ry="1.5"/>
    <circle cx="726" cy="411" r="2"/>
    <ellipse cx="710.5" cy="418" rx="2.5" ry="2"/>
    <circle cx="718.5" cy="139.5" r="1.5"/>
    <ellipse cx="739" cy="180.5" rx="2" ry="2.5"/>
    <circle cx="767" cy="58" r="2"/>
    <ellipse cx="766.5" cy="22.5" rx="2.5" ry="3.5"/>
    <circle cx="476" cy="212" r="1"/>
    <circle cx="492.5" cy="213.5" r="1.5"/>
    <ellipse cx="558" cy="175.5" rx="1" ry="1.5"/>
    <circle cx="570.5" cy="242.5" r="1.5"/>
    <circle cx="597.5" cy="220.5" r="1.5"/>
    <circle cx="650" cy="211" r="1"/>
    <circle cx="400" cy="90" r="1"/>
    <ellipse cx="314.5" cy="114" rx="2.5" ry="2"/>
    <ellipse cx="226.5" cy="15" rx="3.5" ry="2"/>
    <path d="M18 114l2-4 3-1v-7h-4l-2 1h-2l-1 2v6l3 1v1zM6 101l1-5h3v-3l3-3-3-2-2 1-1-4-6 6v7l2-1v2zM36 163l4 7 3-3 1-5-4-3zM24 183l2 4 7 3 3-2-1-2 1-2-1-4-3-1h-1l-3-2-2 2-2 4zM92 237v5h-4l1 7 5 2 4 2 4 1 3-1 3-3h3l1-3v-4l-2-1v-2l-3-3-3 1-4-3h-8zM1045 28v5l3 5 1-4 1-1v-2l-4-3zM1194 17l6-6V8l3-5-2-3-2 1-4-1h-3l-3 1h-2v4h-3v8h3l2 1 4 1zM1104 130h-4l-1 5v2l1 3 4 1h3l2 3h2l3-4 1-2v-3l1-3-2-2-3-2h-6zM1142 215l-1 6-3 4-3 1h-5l-3 3-5-2-4-1-2-4 2-4 3 1 4 2v-3l-3-2h-6l3-4h2v-2l1-2h6v4h1l4-5h2l2 1 2 1 2 2v1zM1231 176l3 1 1-3h5l3 1 3 5v8l-1 1v2l-2 3-2 1-4-2-1-1-3 3-3 1-1-2 2-4-4 1-2 2-2-3-2-2v-3l1-3 3-2 1-1 2 1h1v-2l1-1h1zM72 198l1 5 2 1h4l3-3-1-3h-6l-2-1zM1218 386l5 4 2 4 3 1h3l1-1v-5h-7l-6-4zM1264 416v6l2 1 1 2h3l2-1 1-3 1-1v-2l-2-1-2-2h-4l-2 1zM1030 61v3l1 1 2 1 2-1v-1l-2-2v-2h-1zM1040 83v4l2 2 3 1 2-1 1-2-1-1-2-1v-2l-2-1zM986 108l5 5 1-1 1-4-1-2h-5zM869 520h-8l-3 17 11 6 6-4v-10zM912 530l2 10 2 3 3 3h2l4-3 2-2v-8l-2-3v-5l-4-2h-7l-2 3zM603 555l-3 2v3l-1 2v6l4 1 5-2 1-3v-3l-2-4zM645 568l-3 1v5l1 1v1l2 1h3l2-2 1-1v-2h-4v-2l-2-2zM636 198h-2l-2 3-1 2-1 1v3l3 2 1 2 2 1 2-1 1-2 2-4v-4l-3-2z"/>
    <path d="M588 68v4l2 2 2 2 4-1 2-2-2-2h-2v-3l-3-1zM229 447l-4 2h-3l-1 3v3l1 1h3l1 2 2 1 1-3 1-3 1-3zM497 152l10 13 10-2 6-3v-4h3l3-1v-9h-6l-5-2h-3l-2 1-6-3-4 2-4 6zM523 120l8 10 5-2 5-8 4-5v-7l-5 2-4 7-3 3-2-3h-4zM408 223l8-2 3 4-6 4 2 5 8 4 4-4 2-5h7v11l-7-2-2 2v3h-5l-3 4h-4l-6-2-1-6 1-5v-5l-1-4zM407 218l10-3-3-3v-3h-11v3zM695 206v6l4 5h5l4-2-4-3v-3l-1-4h-6zM367 544v7l4 4h4v-6l4-2 3-2v-7h-5v6zM264 530v7l10 8h4v-5l-4-4-5-6z"/>
  </g>
</svg>
