<svg xmlns="http://www.w3.org/2000/svg" width="333px" height="668px" viewBox="0 0 333 668">
  <path fill="#D8D8D8" fill-rule="evenodd" d="M363 80L347 87 339 102 347 167 351 241 347 280 339 273 329 273 308 263 286 263 269 273 254 297 254 317 263 338 245 338 226 348 214 365 202 386 188 386 174 401 168 421 162 440 148 461 148 476 148 503 162 534 162 555 174 573 174 594 214 678 226 705 236 723 236 747 322 747 375 737 409 716 409 635 422 604 446 573 465 524 479 494 479 449 473 421 459 378 456 348 438 329 438 273 422 241 422 200 413 167 413 125 395 87 379 80z" transform="translate(-147 -79)"/>
</svg>
