<svg xmlns="http://www.w3.org/2000/svg" width="320px" height="687px" viewBox="0 0 320 687">
  <path fill="#D8D8D8" fill-rule="evenodd" d="M684 334L671 291 660 248 647 187 638 154 625 109 625 76 647 57 671 57 695 76 709 109 717 154 729 180 734 224 751 255 751 281 761 308 771 318 787 308 793 271 800 248 800 201 808 180 808 131 808 109 821 92 836 76 856 76 873 92 881 109 881 196 873 235 873 308 868 342 868 402 861 415 868 444 861 494 856 539 843 586 828 647 828 683 828 707 808 730 761 744 709 744 647 738 625 683 600 620 578 571 578 534 563 503 563 456 578 427 584 402 612 376 625 368 638 356 651 334z" transform="translate(-562 -57)"/>
</svg>
