<svg xmlns="http://www.w3.org/2000/svg" width="1309" height="991" viewBox="0 0 1309 991">
  <path d="M335 303l17 40-8 3 12 9 10 32h18l-8-28 22-4 6 21 5-5 4 5 5-9 6 4-6-14-16-54-7-1h-6l-5 4 11 28-21 4-5-9 5-6-3-7h-5l-3-14-11-5h-14zM426 380l10 12 17 14v8l6-3 21 20h13l4-6-7-6h-5l-8-8v-5l-12-10-8-4-21-21-10 3zM593 445l-4 12-22-6-17 4-12 8-4 16 12 17 17 10 21-6 15-18 10 4-5 3-5 17-10 11 4 17-18-11h-18l-7-6h-12l-19-21 3-10-6-7 3-5-3-7h3v-12l12-4v-6h19l7-7 10-2 8 9h3zM621 462v10l10 5 24-11 29-4h26v-6l-9-9h-10l-39 6h-10l-8 3z"/>
  <path d="M546 478v9l9 3 18-3 6-9-2-4h-19zM805 278l8 15-12 37 14-26-7 24-7 12v8l-4 11-7 2-8 17v7l-4 3-3-12 10-17v-11l12-61 4 1-6 31 12-29-6-9zM842 247l-2-10 4-7-1-8h8l2-4h16l8 7 15 11 4 14 2 12v13l-10 12v-5l6-15v-4l-7 14-8 5v4l-16 1-14-6-6-7h-3l-5-13 1-9-1-11 7 6zm9-8l-2 6 4 5v8l4 6 6-6v-5l6-3v11l-5 5-3 3 10 2h10v-4h-9v-9l4-5-2-6-2-3v-6l-7-3-8 3-6 1zM903 237v5h4l7 2h19l3-4-3-6v-8h-7v8z"/>
  <path d="M926 195l2 17 8 13 9 34 5 24 10 21-5-30 5-4-5-9v-7h5v-7l5-2h8l7 16 4 16 3 6 2-15 5 9 5-3-5-17-5-5v-16l-7-11-2-14v-19h-16l-4 3h3l4 4-3 5 6 7v9l-1 5-14 2v-13l-5-3v-12l-3-4h-5v4l-9-4zM549 560l2 6v11l5 23v7l6 23v7l-3 4-5-9h-11l-8 2-15-4-14-12 6-10h4l6-7v-10l7-6v11l10-19-7 6h-3l20-23zm-17 38l4 6 11 4 1-4-1-6v-2l-1-4-1-6-7 2-6 10zM520 675v-13l-3-8-6-6-7 6h-9v12l9 13v7l7 25 6 21h3v10l3 4 10 4 5-8-5-10v-17l-4-16-6-3h22l4-2 5 21 9 14 8 13 5 29 4 32v11h4v-11l-4-35-4-28-3-20 3-14-5-34-8-10v-4l4-4-7-6-6-6h-12l-2 6 5 18-5 3 2 6-4 4h-9zM608 619v16l7 19v13l5 9 6 15v16l5 16h8v-11l-3-16 3-7-6-13-2-14v-27l-5-2v-14l-9 3zM496 519l8 14 3 12 7-12zM463 523l2 24v21h10v-17l-2-5v-9l-4-5zM433 561l5 27 6 7 11-11-2-10-3-2v-6l-6-2-2-5zM404 577l4 14-2 7 9 21 5-1v-6l4 2 3-8-3-6v-6l-4-5 1-8h-3v-4h-5v-4h-9zM332 606l-13-8-11 11 6 21-3 10 14 44 10 13v25l4 18 7 4 8-10v-18l-11-11 11-11-8-14v-13h12l2 4 10 2v15l11 2 14 7 3-9v-10h-9v-7l-5-9h-6v-5h6v-7l-6-6-3-12-3-15 9 13v-21l-6-16h-5l-5-5-11 2-3 8 7 5-2 17 6 15v11l-11 7-5-9-7 6v-6l-2-9-5-7 5-6-2-8zM999 438l-4 9h-5l4 5v6h5l-4 5-5-3 4 7h5l2 12-6 9 6 8 6 14 4 9h9l-4-14v-9l15-5 3 14h6l3 5h3l7 5 4-5-5-8-6-19v-6l-3-5v-12l-3 5-4-28-5 10-5-3-3 6-3 4 6 13v11h-11l-6-5 2-8-4-11-3-4-3-6h3v-3zM942 427l-3 9 9 35 7 3h5l3-6-8-37-4-2h-3l-1-3zM900 425h7l5 3v7l4 1 2 7 3 2 3 6v6l-5-6-1 4h-5v5l-3-11-5-4v-2l-1-3v-4l-2-1-3-4zM875 421h-4v4h-4l8 23-4 9 4 4h4l3 3 4-3v-4l2-3-2-4-1-12-4-11-2-2zM856 415l4 4 3 13v5l2 3-1 5 2 8-1 2-4-4-3 3v5l-4-1-2-5 2-2-3-11v-7l-3-7v-4l1-3 3-4zM827 415l-8 10v6l6 1-2 5 5 8h6l2-4-2-5 3-3-1-6-2-5-4-5zM805 432l8-2-2-6-6-5-8-10-10 2-4-2-9 2-6-4-4 3-5-1-8 8-10 8 4 7-8 18 1 13-5-15 7-16-2-4-4 4v3l-5 13v21l8 10 8 6 2-6 5 9 12 4 7 2v-6h4l3 4 9-2 2-2 10-3h6l8-13 3-3v-6l-5-5-4 3v8h-5l-3-6h-8l-4 3 2 8-6-7 2-4 5-6 7-3-4-4-4 4-4 3-6 4-1 3-7-1h-4l-8-3v-5h3l-3-14 5-6h4l3-5 3 5 5 3v-6h2v-9l6 1h4l3 4 8 4zM827 498l8 2 3-2 9 6 6-4 6 5 12-1-3 5h11l4 9-7 17h-7v17l-12 13v23h-4l-4-23-11-19-19-20v-10l13 15-17-26 12-7zm13 15l9 10v9l7 5v5l8-10-5-9 9-10-7 2-5-2-3 2-4-7-9 5zM893 530l-7 1-5 11v12l9 14-3 6 6 12 5 10v7l8 6 7-4-7 8 7 8 4 7h4l-4-9v-14l-2-4 5-7-5-16 6-4 8 17 2 3 2 7 4 4h11v-14l-9-13v16l-4-11v-19l10 19v-19l-8-33-4-6h-6l-10 5v3l4 4-4 5 6 2-4 10 4 7v3l-10-3-6-2-1-9-8-6 4-7-9-7M946 619l-8 21 4 7 4 6 6-6 2-5-2-6v-9z"/>
</svg>
