<svg xmlns="http://www.w3.org/2000/svg" width="255" height="781" viewBox="0 0 255 781">
  <g fill="none" fill-rule="evenodd" stroke="#FFF">
    <path stroke-linejoin="round" stroke-width="2" d="M52 777l4 3h26l31-7v-21l-38 1v6l-20 13-3 2v2l30-21v3l-27 18 3 2 33-24-22 23h7l22-23-18 23 27-23-22 22 26-19-17 18 17-12-7 10M76 750l-2-9h36l5-1v10l-5-7-1 7-2-7-7 7v-7l-8 7 2-7-9 7v-7l-4 7-2-7z"/>
    <path stroke-linejoin="round" stroke-width="2" d="M65 763l-5 1-1-3h7l-10-7v-5l7 1 5 10v-7h5l-2 5z"/>
    <path stroke-width="2" d="M187 742l3 20h20l5-1h14l18-4 6-4-2-3-13-5-12-1-1-7-1-4z"/>
    <path stroke-linejoin="round" stroke-width="2" d="M191 745l5-3-5 8 14-10-14 15 28-19-25 23 28-20-19 20 20-14-13 14 20-13-11 13 16-11-8 10 13-10-3 9 9-7M187 739l-3-1v-5l6-1 5-1 5-1 10-2 2 2 1-3 11-1v5l-5-4v4l-4-3-4 6-3-4-4 6-1-6-4 6-2-4-2 6-4-5 1 5-3-3z"/>
    <path stroke-linejoin="round" stroke-width="2" d="M237 743l3-2-3-2-6 3 12-9v-3h-5l-9 12v-4h-2"/>
    <path stroke-width="2" d="M60 557l19 181M111 554v24l-3 57v15l1 38 4 50"/>
    <path d="M60 589l5-6"/>
    <path stroke-width="2" d="M72 623l-2 11 1 7 5 3"/>
    <path d="M103 603l9 6M108 577l8 3M105 637l7 6M106 707l8 6M70 699l6-9M88 670v7M81 707l-1 7M81 608v5M94 632v4M78 579v6M96 563l3 5"/>
    <path stroke-width="2" d="M153 547v17l13 52 6 29v25l5 24 5 22 5 15M204 538l1 71 6 7 3 13-5 8 2 28 7 59"/>
    <path d="M158 563l-2 8M176 559v4M197 550l7 5M203 568l4 3M184 592v7M169 605l-2 5M192 630v4M205 661l4 2M198 691v7M178 705l-1 7"/>
    <path stroke-width="2" d="M49 473v79l13 4 42-4h15l-2-12 6-60v-27l-4 27-2-4-18-7"/>
    <path stroke-linejoin="round" stroke-width="2" d="M129 446v37l-3-5 24-9-20 4 10-8-10 4v16l5 10 3 21 6 29h9l39-6 16-4-10-110 12 100"/>
    <path stroke-width="2" d="M87 422l17 3h14l15-5 26-10"/>
    <path stroke-linejoin="round" stroke-width="2" d="M25 412v12L7 438l-5 10 2 3 7-7 14-11-14 21-4 7v3l3 2 6-7 13-20-7 20v8l1 7 2 2 2-4v-6l6-15-1 13 1 5 6 3 3-9 3 4"/>
    <path stroke-width="2" d="M221 394v11l11 10 9 8-2 2-11-4-11-6 4 13 2 6v12h-2l-4-5-2-7-5-9v9l-1 8v4h-3l-3-4M94 413h24l25-5M91 409l56-5M36 182l-8 29-4 43-4 133 12 6h8M20 389l-1 18 5 4v-20l1 20h3v-17l1 19h4l-1-18 3 18h5M172 160l13 40 8 40 12 51 13 47 6 36-23 7M225 375l4 12-6 2-5-11 4 12-4 1-4-11 3 12-5 1-4-12 3 13-6 2-3-12 2 13-4 1M60 150l-7 6-16 25 9 34 4 29v6M48 263l-4 37-3 41v110h14l16 2 11-2 5-23 3-79 2-31v-39l-2-44v-50l-5-28-7 3-7 15 7 8 7 36"/>
    <path stroke-width="2" d="M65 371l1 10-5 8-10 10-8 7-5-3 11-6 7-7 4-9zM85 154l-6-32-15 13-4 30 16-7M146 134l3 15v25l3 13 4 37 2 91 2 93v34l27-12 13-8-2-18v-19l-4-36-3-38-4-27-3-39-10-39"/>
    <path stroke-linejoin="round" stroke-width="2" d="M154 124l10 15 7 19-20-7h7l10 22-12 49"/>
    <path stroke-width="2" d="M173 358l1 12 6 9 20 10v-6l-14-7-6-8z"/>
    <path stroke-linejoin="round" stroke-width="2" d="M119 60l2 10 2 13v5h-9"/>
    <path stroke-linejoin="round" d="M86 73l4-1 3-4 11 4 5-6v-3l-11-4h-9l12 4v2l-1 1-3 2-4-1h-7"/>
    <path stroke-linejoin="round" d="M94 61l3-2v2l2-2v3h4l-2 2h6l-6 1 8 1h-9l6 3-8-1 5 2"/>
    <path d="M87 53l5 4 8 1 9-2v-6H97l-9 2 20-1-18 3 18-2-15 4 15-2-11 3"/>
    <path stroke-linejoin="round" d="M148 66l-5 3-4-2-10 2-3-5 6-4 7-3-11-1v-3l-3-3v-2h12l6 3v6l-8 5 1 1h6l1 2h2l-2 2v-1h-2v-2l-3 2v-2l-3 2v-2l-3 4 2-5-4 4h-1l5-7-6 5 13-7 1-6-2 4-11-2h9l-9-2 12 1-15-3 15 2-10-3"/>
    <path d="M97 107l8-10 11-5h10l9 2 3 5v7l-12-5-8-1-10 5-10 3z"/>
    <path stroke-linejoin="round" d="M137 104l-1-6v5l-2-8v8l-3-8v7l-2-8v8l-2-9v7l-2-7v7l-2-7v7l-2-6v4l-3-5 2 6-4-5 2 6-4-6 2 6-3-5 1 5-3-4 2 6-4-5 2 5-4-5 2 6-3-5 1 5-2-3 1 4-2-2 1 3-3-3 1 3h-2l-2 2"/>
    <path stroke-linejoin="round" stroke-width="2" d="M77 74l-5-9-3 6v9l3 4zM155 65l4-6h2v12l-4 5-4-6z"/>
    <path d="M87 156l19 2 14-2 12-5 12-10 2-2v-9l-6 6 1 5-5-5-10 7 6 6-6-5-9 3 2 6-4-6h-12l3 9-5-9-6-3-2 12v-13l-8-4"/>
    <path stroke-linejoin="round" d="M111 112l8-2 7 1h3M80 30l-8 4-1 11-2 15 5 4 11-38-11 35 6-30-8 29 5-26-6 25 3-24"/>
    <path d="M82 25h10l6-4h13l14-7 10 7 7 6 3 7 4 7v10l2 5-1 8 1 2 3-8-2-5V43l4-3v-8l-3 2-2-6 3-1-2-8-1-12-2 9-7-12-17-3-16 1-9 5-6-3-9 9z"/>
    <path stroke-linejoin="round" d="M85 24l1-11v11L98 8 88 24l18-20-15 20 19-21-17 21 19-21-12 17 15-18-12 17 15-17-12 18 14-18-11 18 15-18-12 17 13-15-7 12 10-11-5 8 7-5h13l-10 1 10 2h-10l14 5-17-5 18 8-20-8 24 11-24-9 24 12-20-9 18 11-15-7 15 9-7-2 9 6-7-4 9 8-7-4 7 6-6-2 5 3h-3v11l3 7-3 4M79 77l-8 14 9-9-8 12 9-10-7 11 7-4-5 8 4-2-7 11 8-9-5 11 6-6-4 12 6-9-4 13 6-9-4 15 6-11-6 17 8-16-6 19 8-19-6 21 8-17-6 18 8-14-5 17 6-15-3 19 6-13-3 13 6-16-3 19 5-19-2 19 4-16v16l2-13v15l3-21v19l2-13 2 13v-10l4 9-4-18 7 19-1-10 3 7-2-8 5 7-8-15 8 13-4-13 8 13-5-13 7 10-6-13 9 12-5-12 7 9-8-13 10 11-6-11 8 10-8-12 11 10-7-10 13 9-11-12 11 9-7-11 7 7-6-11 10 10-9-13 11 12-11-20 9 10-9-13 7 5-8-8 8 3-7-6 9 3-7-8 7 5-10-9 12 6-11-9 9 5-6-9 6 7"/>
  </g>
</svg>
