<svg xmlns="http://www.w3.org/2000/svg" width="1309px" height="991px" viewBox="0 0 1309 991">
  <g fill="none" fill-rule="evenodd">
    <circle cx="230" cy="675" r="2" fill="#E1E1E1"/>
    <ellipse cx="542.5" cy="236.5" fill="#E1E1E1" rx="1.5" ry="3.5"/>
    <circle cx="706" cy="301" r="1" fill="#E1E1E1"/>
    <ellipse cx="788" cy="497.5" fill="#E1E1E1" rx="3" ry="1.5"/>
    <ellipse cx="768.5" cy="503" fill="#E1E1E1" rx="2.5" ry="2"/>
    <ellipse cx="858.5" cy="472.5" fill="#E1E1E1" rx="3.5" ry="2.5"/>
    <ellipse cx="682" cy="339" fill="#E1E1E1" rx="2" ry="1"/>
    <ellipse cx="764" cy="306.5" fill="#E1E1E1" rx="2" ry="2.5"/>
    <ellipse cx="521" cy="425" fill="#E1E1E1" rx="2" ry="3"/>
    <ellipse cx="528" cy="435.5" fill="#E1E1E1" rx="2" ry="1.5"/>
    <circle cx="734" cy="593" r="2" fill="#E1E1E1"/>
    <ellipse cx="718.5" cy="600" fill="#E1E1E1" rx="2.5" ry="2"/>
    <circle cx="726.5" cy="321.5" r="1.5" fill="#E1E1E1"/>
    <ellipse cx="747" cy="362.5" fill="#E1E1E1" rx="2" ry="2.5"/>
    <circle cx="775" cy="240" r="2" fill="#E1E1E1"/>
    <ellipse cx="774.5" cy="204.5" fill="#E1E1E1" rx="2.5" ry="3.5"/>
    <circle cx="484" cy="394" r="1" fill="#E1E1E1"/>
    <circle cx="500.5" cy="395.5" r="1.5" fill="#E1E1E1"/>
    <ellipse cx="566" cy="357.5" fill="#E1E1E1" rx="1" ry="1.5"/>
    <circle cx="578.5" cy="424.5" r="1.5" fill="#E1E1E1"/>
    <circle cx="605.5" cy="402.5" r="1.5" fill="#E1E1E1"/>
    <circle cx="658" cy="393" r="1" fill="#E1E1E1"/>
    <circle cx="408" cy="272" r="1" fill="#E1E1E1"/>
    <ellipse cx="322.5" cy="296" fill="#E1E1E1" rx="2.5" ry="2"/>
    <path fill="#E1E1E1" d="M155 376l9 34v12l-5 15 5 19 8 8-4 4 1 9 3 16 17 17 16 9 13-4 9-7v-10l8-4 4 8 8-5 5 3-3 6-7 6-7 3-3-3-14 7 7 6 9-6h8l6 4 14-2 12 4 6-4 9 2 2-6h12v4l12 6 13-4 19-2 12-3 20-4 13 1 15-7 8-4 8-1 2-4 7-1 10-5 13 2 6-6 23-3 8 4 1-4-2-6-5-3v-4l-7 3-3-3 1-4 6-2 3-1 6-4 7 7 7 1 5 3-2 4-8 6h-4l4 5 5 9-1 5-8 2-7-2-11 6-4 1-3-4-2 5-4 1-3-3-5 4-7 1-4-3-7 5-1 4-9 2-8-2-7 4-20 4-4-4-3 5-17 3-12 1-32 8-2 2-6-1-5 3-10 3-5-2-25 2-10-2-4 3-2 3-4 2-8 7-4 2-6-6 1 9-8 1-11 8h-8l-1 4-3 1-4 7 3 16v8l4 7 2 10-6 11 4 6 4 22-1 9-3 9 4 19 2 22 10 1 2 23 5 9-1 5-4 4-1-10-2 1-3 9 6 11 18 5 5 12 23 28 4 3v6l7 14 6 3 6 9 2 13 4 2 2 6-4 9 7-1 2 22-4 10 7 3-2 8 2 8-9 14-9 17h-3l-1-2 8-19 7-10v-15l-3-5-4 1-2 8-5 5-6 9h-5l-8 9-8 5-4 6-6 1-6 7-4 2-12 15h-11v-6l4-4 20-15 7-10 10-9 7-2 4-7 7-6 19-29-4-11v-8l-6-19-5-2v-5h-9l-2-20-14-18-15-16-15-14-8-7-6-11v-5l6-7-3-19-5-2-1-5h-3l-7-31-2 7 2 24v10l-5 5-16 28-8 11-3 10-6 6-4-3-1-5 4-6 6-4 2-9 5-4 1-7h8l-5-5 4-5 2-1-1-5 6-3 4-6v-6l2-1v-8l-2-3v-6l2-3-2-3v-4l3-9-13 19-10 7-9 3-4 5-5 2-5 5h-6l1-4 6-2-1-4h6l2-5 6-1 3-4 10-5 5-4 2-6 6-8 3-9 7-5-7-5v-6l4-5 7 4-12-20-2-22-7-5-6 9-6 5-5 8 1 5-6 1-9 10v6l-3 4v14l-4 1-1-2 1-4-1-4v-7l-7 6-5 8h-7l-3-1-1-3 1-4 6-11 4-1 6-7 4-3h3l1-3 6-5 13-15h3v-3l2-3 7-1 6-5v-6h-6l-2-5 2-7v-5h-7l-3 9 1 9-4 8-3 4-5-4-12 7-7 7-14 6h-15l-2-6 2-7 8-1 5-6 14 3 10-6 4-7 8-7-1-6-4 1-4-4-3-7-6-3-11-4-14 3-1-5-15 5-6-5-10 2-10-2-3-4 3-4 5 2 4 4 13-4 3 4 17-2 4 2 14-2 2 2h4l3 4 3-2 14-9 12 5 8-2 7 2h7l17-4 3-5-3-5-26-19-6-7-3-9-4 1-3-7-8-4-13-5-11-8-18 13-4-5-10-3 8 8-3 2-10-7-6 2-3-4-5 4-1-2v-3l5-3v-3l8-1 1-5 4 3v-5l6 3v-4l-7-2 8-5 9 1 6 5h12l2 3 7-1 7 5-8-12-15-9-5-1-1-7-3-2-3 8-2-4-9 1-1-3-8 1-1-3-6 1-5-4-6-6H65l-4-3 2-5 4-2 5-2 4 3 6 6 7 6 10 1 4 3 7-1 3-3 1-6h7l5 5v4l5 4 5 3 9-1 6 3v4l-2 6 7 5 4 6 3-3-7-18 3-9-6-6-1-6 2-11-4-14 2-5-4-7 2-2 6 11 3-2-2-13-5-11v9l-6-6 5-10-8-2-2-5-11-19-12-6-2-10-20-20H82l-6-6-4-3H60l-4-3-8 3-5-3-8-1-4-6 4-6h11l6 4 8 4-1-6-6-3-3-6 8 2-3-9-5-5-4 6-2-5 2-8-5-6-2-11-4-13 14 26 11 12-1 5 3 4 1 9 9-3 1 3 2 2-7 6 8 3 7 1 3 1 5-1v-12l-3-10 8-13v-10l4-3 4-10-6 4-2-4 7-10-7 5v-10l3-3 8 1 1 6-1 8 2 7-5 8v11l-8 10v10l4 11 11 21 23 23 5 11 12 6 4 7zm43 159l1 6h6l8 6 3-1 4 3 8-1-3-4v-4l-3-2v-3l-3-1-3 4h-6l-2-2-10-1zM943 409v-15l25-10 4-15 13 15 23-4 17-33 6-6 1-9 8-12 2-5-5-6 1-9-3-8 2-3 5 4-1-6-8-7v7l-15-39 8 11 4 14 3 4h6l8 4 2 5v6l10 8 25-33 24-7 7-10 3 7-6 6-24 7-11 17 13 3 12-6 8 8-8 11-9-8-16-3-24 27v6l-8 8 2 14-6 8-15 15-9 10-9 2 1 6h10l3 4 4-3-2-7 7-5 5 5-5 7 5 4 8-5h13l19-9 7-6 16-3v5l10-6-4-4 10-1 12-12 10-16 6-9 4-10 1-11v-7l6-9v3l-3 7v17l-3 8v4l-5 3 1 6-2 4h-4l-3 2v7l-6 4-6 6 4 6 11-3h4l22-22 9-3v-3l11-2v-5l4 2v3l-4 2-8 6-5 2-5 6-19 15-2 4-12 6-4-3-32 8-4-3-19 9-8 2 10 3 7-2 3 4 7-4 32 22 10 7 7 14 14 7 1-1 2 5 5-4 14 4 2 3 21-5h7l9-6h7l5-4h6l4-6 3 1 8-3 10 2-7 7h-7l-5 2-5-2-5 6-11 1v2h-6l-2 3-7 2-8 1-4-1-10 3-5-1-5-1-4-2-4-1 8 7v4l-11-8-5 1-7-6 9 12 2 9h4l3 3-1 3 2 8 5 4 2 4-1 4 2 5 6 4 7 3h6l1 4-2 3h-2l-4-3-3-2-6-2 2 4 8 6 1 3 4 1 1 3h4l2 3h4l4 7 2 2h1l1 2 3 3v-3h4v-4l3-2-1-3h-2v-3l-4-2v-1h7v1l1 3h3l1 1-1 3-2 5 2 1 7 2h1v2l3-1h4l2 1h1l3 1h1l4-2v-4h2l1 2v2h1l7-2 4-1h2v2l-4 1-4 3-7 2h-7l-2-2h-5v2h-4l-1-2h-8v-3h-7v5l4 3h4l7 7 1 3 7 4 5 5 4 3v2l3-3 2 3 1 2 2 1v1l3-2h1v3h7l1 3h1v3h-3l-1 1h-3v-3l-2 2h-1v-3h-1l-3-1v-1l-3-2h-2l-1-1-4-3-1-1-1-2-3-1-1-1-2-1-1-2h-1l-3-2-1-2h-1l-1-2h-3v-3h-4v5l1 2 3 2v2l-1 3-3-2-3-2-1-1-1-2v-5l-1-4-4-2v-4l-7-5-5-2-2-2-1-2h-2l-4-9h-4v-3l-2-1-3-1-1-1-1-2-4-2-2-3h-2l-2-8h-5v-3h2l-4-13-3-9-4-2-3-2v-5l-3-3 1-3-2-2-1-4-7-7v-4l-4-1-3-3-3-3-2-6-3-5v-4l-3 2-4-5-7-6h-3v-3l-5-3h-1l-1-1h-3v-3h-2l-1 1v3h-3l-1-2 1-2 2-2-4-4-2 3v1l-4-1-1-1h-3l-2-3-4 3-4-5-3-1v3l-2 1h-4v-3l-1-1h-2l-2 3h-2l-3-2v-1l-2-1v3l-3 1h-2v-4l-1 2-1 2h-6l-3 1h-3l-2 2-2-1v-1l-2-1v4l-5 1h-3v-2h-4l-1-5-3 2-1-1h-7l-3 1-2 1h-3l-1-2-2-1-2 1h-2l-6-1-3-1v-3l2-3-3 1-2 5h-5l-2-6-4 2 3 4 5 3h3v3l1 2-2 2h-7l-4-1-8 1v4h-7v-2l-2 2-1 1-4-2-3 4zm102-114l-3 4 3 9-1 2 2 3v7l3 3 1-5-2-1v-4l6-7-2-5h-2l-2-3v-3h-3zM50 103l4 1 7 4 6 4 1 3 8 5 1 4 5 4 2 8 9 10-3 5 9 4-4 5 3 4-1 7 1 3 4-2-4 7 1 9-2 11v2h2l3-5 2-6-1-4 1-6 3 6 2 2-1 5-2 2v5l-3 5-1 5v6l-1 4-1-6-3 5 1 4 4 1v5h4l2-2-1-3-2-1v-9l2-2 1-4-1-3 2-2v-5l3-6-1-6v-10l-3-4-1-7v-7l-2-1-1-5-6-8 4-8-1-7-7-8-1-4 3-4-3-5-3-2-4-6-2-3-2-1-3-3-2-2-6-7h-1l-4-4-2-2v-4l-4-2-1-4-1 1 4 7v3l4 2 4 4v3l4 3 2 3 2 2 2 2-1 3h-3l-2-1-2 2 5 4 3-1v-2l3-2 5 6 2 4v8l3 7 3 6v5l-4-6h-4l-7-12-11-10-10-6-5-2-3-3h-3v3l1 2zM92 235l-9-14 4-2v-8l-11-9-8-1-5-4-9 1-10-5-6-7-4-2h-3l-2-3-5 2-4 6 3 4 1-7 4 6 3-3 3-2-1 3 3 2-6 3 1 3 3 1 6-2 4 3 6 1 2 4 1 2-5 3-3-2-3 2h-8l-3-1-10 1-7 2-2 2-3-2H7l-3 2 2 2h2l1 2 3-2 5 2 16-5h7l4-1 4 1 7-4 11 7 8 2-13-12 8 1 6 4 2 5-2 5 8 4 2 5 3 1-1 4z"/>
    <path fill="#E1E1E1" d="M89 682l2 5 11-1 12-4v-2l-1-2-7 2-12 2zM269 858l3 7-15 13-29 17v-9l17-7zM1187 454l-2 4 2 3 4-3 3 4 3-1 3 2 5-2 4 5 2-3-1-3 6-2 2 2 4-3-4-3-6 3h-3l-3 1-7 2-4-3-3 1zM1050 120l-4 4v6l13-4 9-4 8 7 6-3 12 9 18 13h3v-4l-15-15-17-9-4-4 1-2 13-6 1 4 6 6 4-2v-4l5 2h4l5 1 2-1-5-6-6 1v-3l-5 2v-5l-4 2v1l-7-3-8 6h-9l-8 6-11 1v6l-4-6zM1193 330h9l6-8 2-4 5-3 26-8h9l3-2 2-3-8-1-5 2-1 2-26 8-9 2-2 5h-4v2l-5 2zM1262 437l27 25h5l1-5-1-4-25-19v3l22 19-26-19h-3zM1162 281c2-3 5-5 10-7l8-21-4-12 26-21h11l11-13v9l10-2 9 4 40-11v7l14-7-10 9 10-2 2 2-12 8-4-4-18 6-10-4h-10l-7-2-4 2-3-6-7 2-7 16 17 2 13 2 12 3 2 6-2 4-10-2-6-2h-5l-7-5h-7l-5 5-2-9-4 4-7-4-4 9-11 12-9-3-6 18-11 11c-3 0-4-2-3-4zM1146 371l2 7 17-5 8-2 2 3 6-1 3 3 6-3 4 3 6 1 4 1v4l4-4 6 4h5v2l6-2 12 2 5 3 6-1h3l2-2-2-2h-16l-7-1-1-2-8-2-3 1-6-2-4-2v-3l8-1 2-2 8-6h4l2-4 4-6 5-3h6l6-3-11 1-10 3-11 2h-3l5 7h-21l-5 3-1 9-4-1h-3l-6-2-4 2-4-2h-8l-2-2z"/>
    <path fill="#E1E1E1" d="M1017 231l7 12 3-9-3-10 6-16v-9l-6-21v-18l3-3 3-3 2-3v-5l5-8h4l-2-10 10-18-2-12 15-28v-5h-5l-3 4-8 16-5 5-4-5 2-7-2-8-3-1V58l3-5 2-10 8-6 7-5 8-5h8l4-6 4-7 2-6-2-3-8 7-6 2-2 9h-5v3h-5l-3 3-6 3v5l-4-1v5h-5v2l-6 3v7l2 6v13l5 13 2 8 4 9v8l-7 12-12 12-5 25-3 40 8-12-1 19h-4v14l-5 9v5zM26 296l2-4 3-1v-7h-4l-2 1h-2l-1 2v6l3 1v1zM14 283l1-5h3v-3l3-3-3-2-2 1-1-4-6 6v7l2-1v2zM44 345l4 7 3-3 1-5-4-3zM32 365l2 4 7 3 3-2-1-2 1-2-1-4-3-1h-1l-3-2-2 2-2 4zM100 419v5h-4l1 7 5 2 4 2 4 1 3-1 3-3h3l1-3v-4l-2-1v-2l-3-3-3 1-4-3h-8zM1053 210v5l3 5 1-4 1-1v-2l-4-3zM1202 199l6-6v-3l3-5-2-3-2 1-4-1h-3l-3 1h-2v4h-3v8h3l2 1 4 1zM1112 312h-4l-1 5v2l1 3 4 1h3l2 3h2l3-4 1-2v-3l1-3-2-2-3-2h-6zM1150 397l-1 6-3 4-3 1h-5l-3 3-5-2-4-1-2-4 2-4 3 1 4 2v-3l-3-2h-6l3-4h2v-2l1-2h6v4h1l4-5h2l2 1 2 1 2 2v1zM1239 358l3 1 1-3h5l3 1 3 5v8l-1 1v2l-2 3-2 1-4-2-1-1-3 3-3 1-1-2 2-4-4 1-2 2-2-3-2-2v-3l1-3 3-2 1-1 2 1h1v-2l1-1h1zM80 380l1 5 2 1h4l3-3-1-3h-6l-2-1zM1226 568l5 4 2 4 3 1h3l1-1v-5h-7l-6-4zM1272 598v6l2 1 1 2h3l2-1 1-3 1-1v-2l-2-1-2-2h-4l-2 1zM1038 243v3l1 1 2 1 2-1v-1l-2-2v-2h-1zM1048 265v4l2 2 3 1 2-1 1-2-1-1-2-1v-2l-2-1zM994 290l5 5 1-1 1-4-1-2h-5zM877 702h-8l-3 17 11 6 6-4v-10zM920 712l2 10 2 3 3 3h2l4-3 2-2v-8l-2-3v-5l-4-2h-7l-2 3zM611 737l-3 2v3l-1 2v6l4 1 5-2 1-3v-3l-2-4zM653 750l-3 1v5l1 1v1l2 1h3l2-2 1-1v-2h-4v-2l-2-2zM644 380h-2l-2 3-1 2-1 1v3l3 2 1 2 2 1 2-1 1-2 2-4v-4l-3-2z"/>
    <ellipse cx="234.5" cy="197" fill="#E1E1E1" rx="3.5" ry="2"/>
    <path fill="#E1E1E1" d="M596 250v4l2 2 2 2 4-1 2-2-2-2h-2v-3l-3-1zM237 629l-4 2h-3l-1 3v3l1 1h3l1 2 2 1 1-3 1-3 1-3z"/>
    <path fill="#D8D8D8" d="M335 303l17 40-8 3 12 9 10 32h18l-8-28 22-4 6 21 5-5 4 5 5-9 6 4-6-14-16-54-7-1h-6l-5 4 11 28-21 4-5-9 5-6-3-7h-5l-3-14-11-5h-14zM426 380l10 12 17 14v8l6-3 21 20h13l4-6-7-6h-5l-8-8v-5l-12-10-8-4-21-21-10 3zM593 445l-4 12-22-6-17 4-12 8-4 16 12 17 17 10 21-6 15-18 10 4-5 3-5 17-10 11 4 17-18-11h-18l-7-6h-12l-19-21 3-10-6-7 3-5-3-7h3v-12l12-4v-6h19l7-7 10-2 8 9h3zM621 462v10l10 5 24-11 29-4h26v-6l-9-9h-10l-39 6h-10l-8 3z"/>
    <path fill="#D8D8D8" d="M546 478v9l9 3 18-3 6-9-2-4h-19zM805 278l8 15-12 37 14-26-7 24-7 12v8l-4 11-7 2-8 17v7l-4 3-3-12 10-17v-11l12-61 4 1-6 31 12-29-6-9zM505 334l10 13 10-2 6-3v-4h3l3-1v-9h-6l-5-2h-3l-2 1-6-3-4 2-4 6zM531 302l8 10 5-2 5-8 4-5v-7l-5 2-4 7-3 3-2-3h-4zM842 247l-2-10 4-7-1-8h8l2-4h16l8 7 15 11 4 14 2 12v13l-10 12v-5l6-15v-4l-7 14-8 5v4l-16 1-14-6-6-7h-3l-5-13 1-9-1-11 7 6zm9-8l-2 6 4 5v8l4 6 6-6v-5l6-3v11l-5 5-3 3 10 2h10v-4h-9v-9l4-5-2-6-2-3v-6l-7-3-8 3-6 1zM903 237v5h4l7 2h19l3-4-3-6v-8h-7v8z"/>
    <path fill="#D8D8D8" d="M926 195l2 17 8 13 9 34 5 24 10 21-5-30 5-4-5-9v-7h5v-7l5-2h8l7 16 4 16 3 6 2-15 5 9 5-3-5-17-5-5v-16l-7-11-2-14v-19h-16l-4 3h3l4 4-3 5 6 7v9l-1 5-14 2v-13l-5-3v-12l-3-4h-5v4l-9-4zM416 405l8-2 3 4-6 4 2 5 8 4 4-4 2-5h7v11l-7-2-2 2v3h-5l-3 4h-4l-6-2-1-6 1-5v-5l-1-4zM415 400l10-3-3-3v-3h-11v3zM703 388v6l4 5h5l4-2-4-3v-3l-1-4h-6zM549 560l2 6v11l5 23v7l6 23v7l-3 4-5-9h-11l-8 2-15-4-14-12 6-10h4l6-7v-10l7-6v11l10-19-7 6h-3l20-23zm-17 38l4 6 11 4 1-4-1-6v-2l-1-4-1-6-7 2-6 10zM520 675v-13l-3-8-6-6-7 6h-9v12l9 13v7l7 25 6 21h3v10l3 4 10 4 5-8-5-10v-17l-4-16-6-3h22l4-2 5 21 9 14 8 13 5 29 4 32v11h4v-11l-4-35-4-28-3-20 3-14-5-34-8-10v-4l4-4-7-6-6-6h-12l-2 6 5 18-5 3 2 6-4 4h-9zM608 619v16l7 19v13l5 9 6 15v16l5 16h8v-11l-3-16 3-7-6-13-2-14v-27l-5-2v-14l-9 3zM496 519l8 14 3 12 7-12zM463 523l2 24v21h10v-17l-2-5v-9l-4-5zM433 561l5 27 6 7 11-11-2-10-3-2v-6l-6-2-2-5zM404 577l4 14-2 7 9 21 5-1v-6l4 2 3-8-3-6v-6l-4-5 1-8h-3v-4h-5v-4h-9zM332 606l-13-8-11 11 6 21-3 10 14 44 10 13v25l4 18 7 4 8-10v-18l-11-11 11-11-8-14v-13h12l2 4 10 2v15l11 2 14 7 3-9v-10h-9v-7l-5-9h-6v-5h6v-7l-6-6-3-12-3-15 9 13v-21l-6-16h-5l-5-5-11 2-3 8 7 5-2 17 6 15v11l-11 7-5-9-7 6v-6l-2-9-5-7 5-6-2-8zM375 726v7l4 4h4v-6l4-2 3-2v-7h-5v6zM272 712v7l10 8h4v-5l-4-4-5-6z"/>
  </g>
</svg>
