<svg xmlns="http://www.w3.org/2000/svg" width="676" height="882" viewBox="0 0 676 882">
  <g fill="none" fill-rule="evenodd">
    <g fill="#888">
      <path d="M454 126l-1 7 3 37 2 10h3v-26l16-6 2 25 7-6-2-15 1-4-1-11v-8l-2-13-3 7-2 3 1 17-17 7v-20l-5 5zM494 113v4l-4 3 4 46h6l4 2 15-16-6 2-2-2-11 10-2-18 12-8v-3l3-4-2-2-13 10-3-16 13-10-2-4h-2zM524 104l-1 38 1 11 4 3v-41l8 24 7 15 6 2 1-9V99h-1l-2 8-4 4 3 37-14-37-4-3h-3zM561 150l-2-6 1-38-2-2 2-5 12-6h7l8 2 1 6-3 6-13 9v4l8 11 5 5 2 8-10-8-10-15-1 2v17l-3 6-2 4zm3-47l2 14 6-7 12-7v-5l-5-2h-5l-10 7zM598 88l-2 4 5 8 4 10v3l1 24 5-4-2-20 3-4 2-5 3-6v-3l4-10 3-9h-1l-3 5-2 1-6 12-3 9-2 1-3-8zM450 196l176-48 1 4-176 46v8l-3-2-3 2-1-2h-8l4-8 4-3 1-3z"/>
    </g>
    <g fill="#888" transform="translate(504 167)">
      <circle cx="1" cy="100" r="1"/>
      <circle cx="10" cy="147" r="1"/>
      <circle cx="125" cy="1" r="1"/>
      <circle cx="127" cy="10" r="1"/>
    </g>
    <path stroke="#888" stroke-linecap="square" stroke-width="2" d="M482 209l6 1-6-1zm6-6v14-14zm-6 13v-13 13zM477 206l-1 13-4-7-3 9-3-12"/>
    <path stroke="#888" stroke-width="2" d="M1 1h674v880H1z"/>
    <path stroke="#888" stroke-width="2" d="M488 245l6-5-1 30-5 4 9-5M520 238l3 10v5l3 6 4-10 4 14 1-3 2-17 5-17M544 236l-2 21v-11l9-2 1-12-1 23M561 231l-1 21M571 227v21l-1-21h-5l14-2M585 224l-3 26 4-26 7-3-8 4-1 12 9-3-9 3-1 11 10-4M531 272l60-13-54 18M492 303l2-4 4-2 3 1 1 3-2 4-8 13v3l11-3M548 292l-6 3-1 2 1 3 6 2 2 2-2 5-4 2-5 1M555 292v16-7l8-3v-8 15M573 291l-3 1-2 3 1 4 3 1 3-2 1-4zM581 287v14l-1-12 5-3 3 3-1 3-4 2 5 5M595 284l1 11-2-11h-4l14-2M618 279h-4l-3 2v3l3 2 2 1 1 2v1l-3 2-5 2M550 316l69-16M539 325l80-21M492 211l2-5 2-6 4 10-2-3-4-1M505 195l1 13-2-12-3 1 10-4M527 192l5 9 4-7 4 4 1-1 1-12M547 197l1-12 5-1-5 2v5h4l-4 1v4l5-1-5 1M575 178v14l1-10 5-4-4 5 4 5M586 186v-9l1-1 2 7 4 1 1-4v-10M602 175l-3 2v4l1 1h4l1-3v-2zM609 171v6l4 3 3-5 2 3 3-3v-8M571 379l7-6 7-11 5-3h8l-7 3-3 3-4 9-2 3-4 1h-3M485 515l4-9v-8l-2-10-3-9 1-7 4-5 8-6 5-11 2-12v-6l8-11 8-8 11-6 9-4 10-4-10 8-9 8-3 6v4l3 1 14-13 11-4 12-4 8-6 7-9 8-5 10-4 12-2-9 6-8 6-6 8-3 6v16l-6 8-8 3-3 6v7l6-4 9-3 6-3h10l-10 4-8 9-2 8-5 12-1 9-5 6-5 5v6l14-6 6-2h6l-8 5-7 5-3 8-2 11-6 8-7 7-8 3"/>
    <g stroke="#888" stroke-width="2">
      <path d="M492 540l30-63 17 25-32 8 25 30-34 8h-9"/>
      <path d="M532 558l2-17 8-44 2-14-29 9 21 28-37 7 28 35M511 474l42 10 2-7-17-3-11-3-15-3zM518 470l-1 5M524 471l-1 6M531 472l-2 6M538 475l-2 5M546 476l-2 6M519 469l5-15M547 475l4-13M517 451l13 4 11 4 19 3-15-11-3-4-16 2zM529 449l3-7M524 464l2-4h4l-1 5zM534 466l1-4h4l1 4-3 2zM542 469l2-5 4 2-2 5z"/>
    </g>
    <g stroke="#888" stroke-width="2">
      <path d="M457 614l29-19 18-13 34 22M508 619l42-16 29-19 35 26M549 604l31 15"/>
      <path d="M481 599l1 4 15-7-1 7 13-7 4 3 6-4 7 1M527 612l3 3 12-3 3 3 20-3 2 6M558 598l10-4 6 2 8-2v3l12-1"/>
    </g>
    <path stroke="#888" stroke-width="2" d="M510 691l22-8 19-13 8 16 4 10 4 6 9 3-11 19-12 14-21 14-12-16-5-13-4-16v-15l-1 19 3 15 4 13 13 13-13-10 10 15"/>
    <path stroke="#888" stroke-width="2" d="M513 692l19-7 18-13 18 28 8 3-15 22-16 16-13 13"/>
    <path stroke="#888" stroke-width="2" d="M527 704l10-8 9-11 9 22v3h-9l4 8v7h-9l-6 14h-5l1-15-11-1 1-5 14-11z"/>
    <g stroke="#888" stroke-width="2">
      <path d="M481 822l3-38 9 13 12 41-5-42v-6l7 17 5 20-8-34v-4l5 10 13 39-4-47 11 35-1-43 14 53v-58l18 74-6-74 11 56-5-74 16 85-11-80 2-17 10 35 5 49-7-72v-19l6 24 7 66"/>
      <path d="M596 727l-65 65-18 24 87-86-79 88 79-80-66 75 66-67-64 72 67-64-60 67 57-54-50 57 46-45-45 52 45-44-40 49 38-40-31 38 30-30-25 32 25-27-27 43"/>
    </g>
    <g transform="translate(0 220)">
      <path stroke="#888" stroke-width="2" d="M2 46l16-13 18-6V15l7-6 9 12 14-6 17-3 3-12 10 3 5 9 17-3h12l7 12v32l-7-4-5 9-11-5-4 8-6-3-5 6-5-3-4 5-12-2v7l5 7 24 2 3-7v7l7-2v5l10-3v17l-5 5-15 2-32 5-9 9M25 125l15-5h10l17-2 30 9 24 16h-14l8 5-5 2 5 7-10-2 5 13h-9l-15-4-22 3-19 7-30 14-15 10"/>
      <path stroke="#888" stroke-linecap="round" stroke-linejoin="bevel" stroke-width="2" d="M115 10v4l4 3 15-1-5-6 2 5-4-5 2 6-4-5 1 5-4-6 1 6-4-6 2 6-4-5"/>
      <ellipse cx="73.5" cy="26.5" fill="#888" rx="2.5" ry="1.5"/>
      <ellipse cx="96.5" cy="21.5" fill="#888" rx="2.5" ry="1.5"/>
      <path stroke="#888" stroke-width="2" d="M3 199h19l16 3 16 7 11 12 2-7h3v-11h5l-5-8-5-5h6l9 5-5-10-15-7-16-9"/>
    </g>
    <path stroke="#888" stroke-width="2" d="M75 464l-15-5H44l-16 12-6 23 6 30 14 21 18 18 22 11 31 4h4l14-21 9-24 9-22v-34l-11-34-13-12-18-2-17 9-11 13z"/>
    <path stroke="#888" stroke-width="2" d="M65 561l-17 45-2-34 8 14 15-2-20 24M124 437l15-30 9-4 7-18-10 8-1-14-7 13v15"/>
    <path stroke="#888" stroke-linejoin="round" stroke-width="2" d="M57 506l-9-25 3-3 6 1 3 4v4l-6 5 7-1 3 2v6l-5 5h-1"/>
    <path stroke="#888" stroke-width="2" d="M67 480l3 12 6 1 3-5v-8l-4-9M90 489l-7-21 3-4 4 2 2 5-4 6 12 5M112 476l-7-19-6 2 18-7M92 515l-4-11 4 5 4-3-11 6M83 558l-9-23-11 6 21-8M89 535l2 11 5 4 4-4v-5l-3-8M111 540l-7-21 2-3 6-1 3 4-1 5-6 4 16 6M124 508l6 19-7-18-7 3 16-6"/>
  </g>
</svg>
